<svg width="120" height="120" viewBox="0 0 120 120" fill="none" xmlns="http://www.w3.org/2000/svg">
<g clip-path="url(#clip0_82_39)">
<path d="M60 120C93.1371 120 120 93.1371 120 60C120 26.8629 93.1371 0 60 0C26.8629 0 0 26.8629 0 60C0 93.1371 26.8629 120 60 120Z" fill="#89CDDE"/>
<path d="M60 122C94.2417 122 122 109.464 122 94C122 78.536 94.2417 66 60 66C25.7583 66 -2 78.536 -2 94C-2 109.464 25.7583 122 60 122Z" fill="#6BBFCF" fill-opacity="0.25"/>
<mask id="mask0_82_39" style="mask-type:luminance" maskUnits="userSpaceOnUse" x="0" y="0" width="120" height="120">
<path d="M60 120C93.1371 120 120 93.1371 120 60C120 26.8629 93.1371 0 60 0C26.8629 0 0 26.8629 0 60C0 93.1371 26.8629 120 60 120Z" fill="white"/>
</mask>
<g mask="url(#mask0_82_39)">
<path d="M41.4 5.2C39.2 6.06666 37.0333 6.93333 34.9 7.8C31.2333 10.1333 27.6 12.5 24 14.9C22.5333 16.1667 21.0333 17.4333 19.5 18.7C17.2333 21.3667 14.9333 24.0333 12.6 26.7C12.1333 27.5 11.6667 28.3 11.2 29.1C9.33333 33.7 7.5 38.3333 5.7 43C6.1 45.6667 6.53333 48.3 7 50.9C7.26667 51.9667 7.53333 53 7.8 54C8.2 55.8 8.63333 57.6 9.1 59.4C9.96667 60.6667 10.8667 61.9 11.8 63.1C14.9333 63.3667 18.0667 63.6 21.2 63.8C21.8 65.3333 22.4 66.8667 23 68.4C25.0667 69.9333 27.1667 71.4667 29.3 73C29.8333 74.4 30.4 75.8 31 77.2C35.6667 80.3333 40.3667 83.4667 45.1 86.6C44.3 88.2 43.4667 89.8333 42.6 91.5C42.2 93.0333 41.8 94.6 41.4 96.2C40.6667 96.8667 39.9 97.5 39.1 98.1C38.0333 99.1 37 100.1 36 101.1C35.4 101.967 34.8 102.867 34.2 103.8C33.4 104.467 32.6333 105.167 31.9 105.9C31.4333 106.5 30.9667 107.067 30.5 107.6C31.4333 108.6 32.3333 109.6 33.2 110.6C33.7333 111.067 34.2333 111.5 34.7 111.9C33.3667 111.167 32 110.4 30.6 109.6C28.9333 108.333 27.3 107.033 25.7 105.7C25.1667 104.9 24.6 104.067 24 103.2C23.2 101.6 22.3667 99.9667 21.5 98.3C18.4333 92.8333 15.4 87.3667 12.4 81.9C11.5333 78.8333 10.6667 75.8 9.8 72.8C9.8 71.8 9.8 70.8333 9.8 69.9C10.2 68.5 10.6 67.1 11 65.7C10.0667 60.7667 9.13333 55.8333 8.2 50.9C7.73333 49.5 7.26667 48.1333 6.8 46.8C7.6 44.6 8.4 42.3667 9.2 40.1C9.8 39.4333 10.4 38.7667 11 38.1C12.2 38.7 13.3667 39.3333 14.5 40C14.3667 41.9333 14.2 43.8333 14 45.7C14.8667 44.2333 15.7 42.7667 16.5 41.3C18.0333 39.8333 19.5667 38.3667 21.1 36.9C22.3 35.6333 23.4667 34.3333 24.6 33C25.4 33 26.2 33 27 33C28.2 32.7333 29.3667 32.4667 30.5 32.2C32.7667 31.8667 35.0333 31.5333 37.3 31.2C37.8333 29.7333 38.4 28.3 39 26.9C38.2 24.7667 37.3667 22.6333 36.5 20.5C36.1 18.9 35.7 17.3333 35.3 15.8C36.5 14.3333 37.7333 12.8667 39 11.4C37.0667 11.0667 35.1333 10.7 33.2 10.3C33.7333 9.5 34.3 8.66666 34.9 7.8L41.4 5.2Z" fill="#6CB862"/>
<path d="M34.9 7.8C37.0333 6.93333 39.2 6.06666 41.4 5.2L34.9 7.8ZM34.9 7.8C31.2333 10.1333 27.6 12.5 24 14.9C22.5333 16.1667 21.0333 17.4333 19.5 18.7C17.2333 21.3667 14.9333 24.0333 12.6 26.7C12.1333 27.5 11.6667 28.3 11.2 29.1C9.33333 33.7 7.5 38.3333 5.7 43C6.1 45.6667 6.53333 48.3 7 50.9C7.26667 51.9667 7.53333 53 7.8 54C8.2 55.8 8.63333 57.6 9.1 59.4C9.96667 60.6667 10.8667 61.9 11.8 63.1C14.9333 63.3667 18.0667 63.6 21.2 63.8C21.8 65.3333 22.4 66.8667 23 68.4C25.0667 69.9333 27.1667 71.4667 29.3 73C29.8333 74.4 30.4 75.8 31 77.2C35.6667 80.3333 40.3667 83.4667 45.1 86.6C44.3 88.2 43.4667 89.8333 42.6 91.5C42.2 93.0333 41.8 94.6 41.4 96.2C40.6667 96.8667 39.9 97.5 39.1 98.1C38.0333 99.1 37 100.1 36 101.1C35.4 101.967 34.8 102.867 34.2 103.8C33.4 104.467 32.6333 105.167 31.9 105.9C31.4333 106.5 30.9667 107.067 30.5 107.6C31.4333 108.6 32.3333 109.6 33.2 110.6C33.7333 111.067 34.2333 111.5 34.7 111.9C33.3667 111.167 32 110.4 30.6 109.6C28.9333 108.333 27.3 107.033 25.7 105.7C25.1667 104.9 24.6 104.067 24 103.2C23.2 101.6 22.3667 99.9667 21.5 98.3C18.4333 92.8333 15.4 87.3667 12.4 81.9C11.5333 78.8333 10.6667 75.8 9.8 72.8C9.8 71.8 9.8 70.8333 9.8 69.9C10.2 68.5 10.6 67.1 11 65.7C10.0667 60.7667 9.13333 55.8333 8.2 50.9C7.73333 49.5 7.26667 48.1333 6.8 46.8C7.6 44.6 8.4 42.3667 9.2 40.1C9.8 39.4333 10.4 38.7667 11 38.1C12.2 38.7 13.3667 39.3333 14.5 40C14.3667 41.9333 14.2 43.8333 14 45.7C14.8667 44.2333 15.7 42.7667 16.5 41.3C18.0333 39.8333 19.5667 38.3667 21.1 36.9C22.3 35.6333 23.4667 34.3333 24.6 33C25.4 33 26.2 33 27 33C28.2 32.7333 29.3667 32.4667 30.5 32.2C32.7667 31.8667 35.0333 31.5333 37.3 31.2C37.8333 29.7333 38.4 28.3 39 26.9C38.2 24.7667 37.3667 22.6333 36.5 20.5C36.1 18.9 35.7 17.3333 35.3 15.8C36.5 14.3333 37.7333 12.8667 39 11.4C37.0667 11.0667 35.1333 10.7 33.2 10.3C33.7333 9.5 34.3 8.66666 34.9 7.8Z" stroke="#3A8230" stroke-width="1.2" stroke-linejoin="round"/>
<path d="M71.5 44.5C72.5667 44.4333 73.6333 44.3333 74.7 44.2C77.5667 43.0667 80.4 41.9667 83.2 40.9C87.2 41.9667 91.2 43 95.2 44C97.0667 43.2667 98.9 42.5 100.7 41.7C103.967 46.9667 107.233 52.2333 110.5 57.5C111.633 56.9667 112.733 56.4333 113.8 55.9C112.933 60.9667 112.067 66.0667 111.2 71.2C110.6 73.8667 110.033 76.5333 109.5 79.2C108.033 82.0667 106.6 84.9 105.2 87.7C104.4 89.8333 103.567 91.9667 102.7 94.1C101.3 95.5 99.9 96.9 98.5 98.3C95.5 99.9667 92.5333 101.667 89.6 103.4C89 101 88.3667 98.6 87.7 96.2C87.8333 90.5333 87.9667 84.8667 88.1 79.2C85.6333 77.7333 83.1667 76.2333 80.7 74.7C78.7667 74.5667 76.8667 74.4333 75 74.3C71 71.5667 66.9667 68.8 62.9 66C62.8333 63.6667 62.8 61.3333 62.8 59C63.7333 57.6 64.6333 56.2 65.5 54.8C67.3 52 69.1 49.2333 70.9 46.5C71.1 45.8333 71.3 45.1667 71.5 44.5Z" fill="#6CB862" stroke="#3A8230" stroke-width="1.2" stroke-linejoin="round"/>
<path d="M68.7 41.8C71.2333 39.6 73.7667 37.4333 76.3 35.3C77.3667 35.1 78.4667 34.9 79.6 34.7C81.6667 35.2333 83.7 35.8 85.7 36.4C87.9667 35.6667 90.2333 34.9667 92.5 34.3C91.8333 33.1 91.1667 31.9333 90.5 30.8C87.0333 27.2 83.5667 23.5667 80.1 19.9C77.3 18.0333 74.5 16.1667 71.7 14.3C71.6333 16.3 71.5667 18.3 71.5 20.3C72.3667 22.9667 73.2 25.6333 74 28.3C73.2 29.0333 72.3667 29.7333 71.5 30.4C70.3667 31.0667 69.2333 31.7667 68.1 32.5C68.3 33.7 68.5 34.9 68.7 36.1C68.7 38.0333 68.7 39.9333 68.7 41.8Z" fill="#6CB862" stroke="#3A8230" stroke-width="1.2" stroke-linejoin="round"/>
<path d="M92.5 34.3C95.1667 34.1 97.8 33.9333 100.4 33.8C102.533 34.6 104.667 35.4333 106.8 36.3C108.733 38.6333 110.667 41 112.6 43.4C113.067 47.1333 113.533 50.9 114 54.7C113 55.5667 112 56.4 111 57.2C110.867 57.3333 110.7 57.4333 110.5 57.5C111.633 56.9667 112.733 56.4333 113.8 55.9C113.4 51.7 113 47.5333 112.6 43.4C112.533 41.5333 112.5 39.7 112.5 37.9C113.167 38.8333 113.833 39.7667 114.5 40.7C115.167 43.5 115.867 46.2667 116.6 49C115.667 45.3333 114.7 41.7 113.7 38.1C112.633 35.9 111.533 33.6667 110.4 31.4C108.867 29.9333 107.3 28.4667 105.7 27C103.967 25.9333 102.2 24.9 100.4 23.9C99.8 24.7 99.1667 25.5 98.5 26.3C98.1 27.8333 97.7 29.3667 97.3 30.9C96.2333 31.5 95.1333 32.0667 94 32.6C93.5333 33.2 93.0333 33.7667 92.5 34.3Z" fill="#6CB862"/>
<path d="M112.6 43.4C110.667 41 108.733 38.6333 106.8 36.3C104.667 35.4333 102.533 34.6 100.4 33.8C97.8 33.9333 95.1667 34.1 92.5 34.3C93.0333 33.7667 93.5333 33.2 94 32.6C95.1333 32.0667 96.2333 31.5 97.3 30.9C97.7 29.3667 98.1 27.8333 98.5 26.3C99.1667 25.5 99.8 24.7 100.4 23.9C102.2 24.9 103.967 25.9333 105.7 27C107.3 28.4667 108.867 29.9333 110.4 31.4C111.533 33.6667 112.633 35.9 113.7 38.1C114.7 41.7 115.667 45.3333 116.6 49C115.867 46.2667 115.167 43.5 114.5 40.7C113.833 39.7667 113.167 38.8333 112.5 37.9C112.5 39.7 112.533 41.5333 112.6 43.4ZM112.6 43.4C113.067 47.1333 113.533 50.9 114 54.7C113 55.5667 112 56.4 111 57.2C110.867 57.3333 110.7 57.4333 110.5 57.5C111.633 56.9667 112.733 56.4333 113.8 55.9C113.4 51.7 113 47.5333 112.6 43.4Z" stroke="#3A8230" stroke-linejoin="round"/>
</g>
<path d="M60 119.5C92.8609 119.5 119.5 92.8609 119.5 60C119.5 27.1391 92.8609 0.5 60 0.5C27.1391 0.5 0.5 27.1391 0.5 60C0.5 92.8609 27.1391 119.5 60 119.5Z" stroke="#2A2A36" stroke-width="2.8"/>
<path d="M28 38C37.3888 38 45 32.6274 45 26C45 19.3726 37.3888 14 28 14C18.6112 14 11 19.3726 11 26C11 32.6274 18.6112 38 28 38Z" fill="white" fill-opacity="0.26"/>
</g>
<defs>
<clipPath id="clip0_82_39">
<rect width="120" height="120" fill="white"/>
</clipPath>
</defs>
</svg>
